{"title":"Dhoom 3 DvDRip X264- E Subs {VikkyMaxx}[SilverRG]","uid":10108834,"size":1222218157,"categoryP":"video","categoryS":"movies","magnet":"?xt=urn:btih:359e7639a85b39bd7934cfc2ca98633a1a7652b1&amp;dn=Dhoom+3+DvDRip+X264-+E+Subs+%7BVikkyMaxx%7D%5BSilverRG%5D&amp;tr=udp%3A%2F%2Ftracker.openbittorrent.com%3A80&amp;tr=udp%3A%2F%2Fopen.demonii.com%3A1337&amp;tr=udp%3A%2F%2Ftracker.coppersurfer.tk%3A6969&amp;tr=udp%3A%2F%2Fexodus.desync.com%3A6969","seeders":3,"leechers":2,"uploader":"shailendramaxx","files":18,"time":1399491493,"description":"VikkyMaxx SilverRG Presents:-\n\n\nGeneral:-\n \n \nComplete name :Dhoom 3 DvDRip X264 {VikkyMaxx}[SilverRG]\nFormat : Matroska \nFormat version : Version 2 \nFile size : 1.13 GiB \nDuration : 2h 51mn \nOverall bit rate : 943 Kbps \nEncoded date : UTC 2014-05-07 14:46:50 \nWriting application : mkvmerge v6.5.0 ('Isn't she lovely') built on Oct 20 2013 12:50:05 \nWriting library : libebml v1.3.0 + libmatroska v1.4.1 \n\nVideo:-\n \nID : 1 \nFormat : AVC \nFormat/Info : Advanced Video Codec \nFormat profile : &lt;a class=&quot;__cf_email__&quot; href=&quot;/cdn-cgi/l/email-protection&quot; data-cfemail=&quot;165e7f717e565a243827&quot;&gt;[email&amp;#160;protected]&lt;/a&gt;&lt;script cf-hash='f9e31' type=&quot;text/javascript&quot;&gt;\n/* &lt;![CDATA[ */!function(){try{var t=&quot;currentScript&quot;in document?document.currentScript:function(){for(var t=document.getElementsByTagName(&quot;script&quot;),e=t.length;e--;)if(t[e].getAttribute(&quot;cf-hash&quot;))return t[e]}();if(t&amp;&amp;t.previousSibling){var e,r,n,i,c=t.previousSibling,a=c.getAttribute(&quot;data-cfemail&quot;);if(a){for(e=&quot;&quot;,r=parseInt(a.substr(0,2),16),n=2;a.length-n;n+=2)i=parseInt(a.substr(n,2),16)^r,e+=String.fromCharCode(i);e=document.createTextNode(e),c.parentNode.replaceChild(e,c)}}}catch(u){}}();/* ]]&gt; */&lt;/script&gt; \nFormat settings, CABAC : Yes \nFormat settings, ReFrames : 4 frames \nCodec ID : V_MPEG4/ISO/AVC \nDuration : 2h 51mn \nBit rate : 541 Kbps \nWidth : 608 pixels \nHeight : 256 pixels \nDisplay aspect ratio : 2.40:1 \nFrame rate mode : Constant \nFrame rate : 23.976 fps \nColor space : YUV \nChroma subsampling : 4:2:0 \nBit depth : 8 bits \nScan type : Progressive \nBits/(Pixel*Frame) : 0.145 \nStream size : 662 MiB (57%) \nWriting library : x264 core 138 r2358 9e941d1 \nEncoding settings : cabac=1 / ref=3 / deblock=1:0:0 \nDefault : Yes \nForced : No \n\nAudio:-\n \nID : 2 \nFormat : AC-3 \nFormat/Info : Audio Coding 3 \nMode extension : CM (complete main) \nFormat settings, Endianness : Big \nCodec ID : A_AC3 \nDuration : 2h 51mn \nBit rate mode : Constant \nBit rate : 384 Kbps \nChannel(s) : 2 channels \nChannel positions : Front: L R \nSampling rate : 32.0 KHz \nBit depth : 16 bits \nCompression mode : Lossy \nStream size : 470 MiB (41%) \nLanguage : Hindi \nDefault : Yes \nForced : No \n\n\n                                       \nSCREENS:-      \n &lt;a href=&quot;\nhttp://i.imgur.com/EvZa5Yn.png&quot; rel=&quot;nofollow&quot; target=&quot;_NEW&quot;&gt;\nhttp://i.imgur.com/EvZa5Yn.png&lt;/a&gt;\n &lt;a href=&quot;\nhttp://i.imgur.com/ncGXdy1.png&quot; rel=&quot;nofollow&quot; target=&quot;_NEW&quot;&gt;\nhttp://i.imgur.com/ncGXdy1.png&lt;/a&gt;\n &lt;a href=&quot;\nhttp://i.imgur.com/jGZ1Ixl.png&quot; rel=&quot;nofollow&quot; target=&quot;_NEW&quot;&gt;\nhttp://i.imgur.com/jGZ1Ixl.png&lt;/a&gt;\n &lt;a href=&quot;\nhttp://i.imgur.com/Cqpm9y9.png&quot; rel=&quot;nofollow&quot; target=&quot;_NEW&quot;&gt;\nhttp://i.imgur.com/Cqpm9y9.png&lt;/a&gt;\n &lt;a href=&quot;\nhttp://i.imgur.com/v4a2Z5x.png&quot; rel=&quot;nofollow&quot; target=&quot;_NEW&quot;&gt;\nhttp://i.imgur.com/v4a2Z5x.png&lt;/a&gt;\n &lt;a href=&quot;\nhttp://i.imgur.com/hp8a4bo.png&quot; rel=&quot;nofollow&quot; target=&quot;_NEW&quot;&gt;\nhttp://i.imgur.com/hp8a4bo.png&lt;/a&gt;\n &lt;a href=&quot;\nhttp://i.imgur.com/hAbZ7JF.png&quot; rel=&quot;nofollow&quot; target=&quot;_NEW&quot;&gt;\nhttp://i.imgur.com/hAbZ7JF.png&lt;/a&gt;\n &lt;a href=&quot;\nhttp://i.imgur.com/hk34XT7.png&quot; rel=&quot;nofollow&quot; target=&quot;_NEW&quot;&gt;\nhttp://i.imgur.com/hk34XT7.png&lt;/a&gt;\n &lt;a href=&quot;\nhttp://i.imgur.com/VQlgHMq.png&quot; rel=&quot;nofollow&quot; target=&quot;_NEW&quot;&gt;\nhttp://i.imgur.com/VQlgHMq.png&lt;/a&gt;\n &lt;a href=&quot;\nhttp://i.imgur.com/Whvd7ls.png&quot; rel=&quot;nofollow&quot; target=&quot;_NEW&quot;&gt;\nhttp://i.imgur.com/Whvd7ls.png&lt;/a&gt;\n\n\n\n\nSAMPLE AND SCREENSHOTS INCLUDED\n\n    \n             \n             ********** PLEASE SEED AS LONG AS YOU CAN AFTER DOWNLOAD **********\n       \n                    ***** THANK YOU REGARDS - VIKKYMAXX (SilverRG) *****","torrent":{"xt":"urn:btih:359e7639a85b39bd7934cfc2ca98633a1a7652b1","amp;dn":"Dhoom+3+DvDRip+X264-+E+Subs+%7BVikkyMaxx%7D%5BSilverRG%5D","amp;tr":["udp%3A%2F%2Ftracker.openbittorrent.com%3A80","udp%3A%2F%2Fopen.demonii.com%3A1337","udp%3A%2F%2Ftracker.coppersurfer.tk%3A6969","udp%3A%2F%2Fexodus.desync.com%3A6969"],"infoHash":"359e7639a85b39bd7934cfc2ca98633a1a7652b1","infoHashBuffer":{"type":"Buffer","data":[53,158,118,57,168,91,57,189,121,52,207,194,202,152,99,58,26,118,82,177]},"announce":[],"urlList":[]}}